<?xml version="1.0" encoding="iso-8859-1"?>
<!-- Generator: Adobe Illustrator 19.0.0, SVG Export Plug-In . SVG Version: 6.00 Build 0)  -->
<svg version="1.1" id="Capa_1" xmlns="http://www.w3.org/2000/svg" xmlns:xlink="http://www.w3.org/1999/xlink" x="0px" y="0px"
	 viewBox="0 0 490.046 490.046" style="enable-background:new 0 0 490.046 490.046;" xml:space="preserve">
<g>
	<path d="M489.065,258.546c-4-208.1-202.8-258.2-204.9-258.2c-7.3-1-13.5,0-18.7,5.2l-253.7,240.8c-6.9,3.4-11.7,10.5-11.7,18.7
		v204.2c0,11.5,9.4,20.8,20.8,20.8h447.3c11.4,0,20.8-9.4,21.8-20.8C490.065,469.246,489.665,260.646,489.065,258.546z
		 M283.065,43.146c35.8,11.9,153,60.8,163.6,201h-375.8L283.065,43.146z M448.465,449.446h-407.8v-61.5h407.8V449.446z
		 M448.465,346.246h-407.8v-60.4h407.8V346.246z"/>
</g>
<g>
</g>
<g>
</g>
<g>
</g>
<g>
</g>
<g>
</g>
<g>
</g>
<g>
</g>
<g>
</g>
<g>
</g>
<g>
</g>
<g>
</g>
<g>
</g>
<g>
</g>
<g>
</g>
<g>
</g>
</svg>
