<?xml version='1.0' encoding='iso-8859-1'?>
<svg version="1.1" xmlns="http://www.w3.org/2000/svg" viewBox="0 0 463.002 463.002" xmlns:xlink="http://www.w3.org/1999/xlink" enable-background="new 0 0 463.002 463.002">
  <g>
    <path d="m374.154,5.441c-1.139-3.983-5.293-6.287-9.272-5.151l-94.594,27.027c-13.451,3.844-22.846,16.299-22.846,30.288v38.396h-113.566c-16.879,0-30.701,13.208-31.467,30.069l-13.818,304c-0.395,8.677 2.693,16.914 8.694,23.193 6,6.279 14.088,9.737 22.772,9.737h173.769c8.686,0 16.773-3.458 22.773-9.737 6.001-6.28 9.089-14.517 8.694-23.193l-13.818-303.999c-0.766-16.862-14.588-30.07-31.468-30.07h-17.565v-38.396c0-7.328 4.921-13.853 11.967-15.865l94.594-27.026c3.982-1.139 6.289-5.289 5.151-9.273zm-77.663,121.312l13.818,304c0.206,4.544-1.411,8.858-4.554,12.148-3.144,3.289-7.38,5.101-11.93,5.101h-173.767c-4.549,0-8.785-1.812-11.929-5.101-3.143-3.289-4.76-7.604-4.554-12.148l13.818-304.001c0.401-8.832 7.641-15.75 16.482-15.75h146.132c8.843-1.42109e-14 16.083,6.918 16.484,15.751z"/>
    <path d="m247.172,241.829c-4.234-1.376-8.587-1.968-13.01-1.797 12.25-8.962 20.281-23.783 20.281-40.53 0-4.143-3.357-7.5-7.5-7.5-16.801,0-31.581,9.146-40.028,22.902-5.226-9.071-11.319-13.31-11.776-13.619-3.434-2.318-8.131-1.436-10.447,1.998-2.317,3.434-1.446,8.071 1.987,10.388 0.524,0.372 12.149,8.875 12.762,29.64-3.723-0.38-7.421-1.038-11.057-1.986-7.406-1.933-14.696-1.762-21.671,0.505-12.719,4.136-22.533,14.668-27.635,29.655-4.816,14.151-4.857,30.778-0.116,46.819 5.813,19.67 17.839,35.527 32.994,43.505 6.578,3.463 13.336,5.21 19.982,5.209 3.942,0 7.846-0.614 11.648-1.851 0.029-0.01 0.056-0.019 0.079-0.026 2.145-0.703 4.41-0.703 6.555,0 0.025,0.009 0.052,0.018 0.078,0.026 10.215,3.32 21.15,2.159 31.633-3.359 15.154-7.977 27.18-23.834 32.993-43.504 4.741-16.041 4.699-32.669-0.117-46.819-5.101-14.988-14.915-25.52-27.635-29.656zm-8.779-33.616c-2.931,11.914-11.727,21.341-22.902,24.578 2.931-11.914 11.727-21.341 22.902-24.578zm22.146,105.838c-4.604,15.579-14.173,28.47-25.596,34.482-4.753,2.503-12.085,4.944-20.007,2.367-0.005-0.001-0.009-0.002-0.013-0.004-0.01-0.003-0.019-0.006-0.028-0.009-5.165-1.694-10.621-1.707-15.855-0.017-0.03,0.01-0.062,0.02-0.093,0.029-7.925,2.577-15.253,0.135-20.006-2.366-11.423-6.014-20.991-18.904-25.596-34.483-7.616-25.767 0.629-52.308 18.005-57.957 2.241-0.729 4.555-1.094 6.923-1.094 2.071,0 4.184,0.279 6.324,0.837 14.617,3.814 30.072,3.814 44.689,0 4.587-1.195 9.043-1.111 13.247,0.257 17.376,5.651 25.621,32.192 18.006,57.958z"/>
  </g>
</svg>
