<?xml version="1.0" encoding="iso-8859-1"?>
<!-- Generator: Adobe Illustrator 16.0.0, SVG Export Plug-In . SVG Version: 6.00 Build 0)  -->
<!DOCTYPE svg PUBLIC "-//W3C//DTD SVG 1.1//EN" "http://www.w3.org/Graphics/SVG/1.1/DTD/svg11.dtd">
<svg version="1.1" id="Capa_1" xmlns="http://www.w3.org/2000/svg" xmlns:xlink="http://www.w3.org/1999/xlink" x="0px" y="0px"
	 width="284.893px" height="284.892px" viewBox="0 0 284.893 284.892" style="enable-background:new 0 0 284.893 284.892;"
	 xml:space="preserve">
<g>
	<g>
		<g id="Layer_5_2_">
			<g>
				<path d="M143.117,17.542C63.388,17.644-18.473,167.573,3.678,213.763c11.81,24.63,43.109,40.399,80.739,48.069
					c36.73,7.479,79.5,7.24,116.061-0.021c40.091-7.972,72.71-24.381,81.721-48.319C300.337,165.323,223.897,17.442,143.117,17.542z
					 M255.147,202.113c-5.66,15.05-22.99,26.37-45.721,33.62c-1.604,0.509-3.237,0.999-4.896,1.472
					c-1.336,0.383-4.057,0.328-4.057-3.172v-72.811c0-7.408-6.062-13.471-13.479-13.471h-89.1c-7.42,0-13.48,6.062-13.48,13.471
					v72.749c0,3.312-2.771,3.521-4.133,3.114c-23.315-6.927-41.914-18.396-49.747-34.754c-8.85-18.46,3.08-57.93,25.18-92.791
					c22.11-34.859,54.4-65.12,86.25-65.16c0.351,0,0.69,0.021,1.03,0.03c0.33-0.01,0.659-0.03,0.989-0.03
					c16.141-0.02,32.069,7.42,46.649,19.2c14.579,11.771,27.812,27.891,38.579,45.2
					C250.747,143.413,262.397,182.873,255.147,202.113z"/>
			</g>
		</g>
	</g>
</g>
<g>
</g>
<g>
</g>
<g>
</g>
<g>
</g>
<g>
</g>
<g>
</g>
<g>
</g>
<g>
</g>
<g>
</g>
<g>
</g>
<g>
</g>
<g>
</g>
<g>
</g>
<g>
</g>
<g>
</g>
</svg>
